<svg id="Слой_7" data-name="Слой 7" xmlns="http://www.w3.org/2000/svg" viewBox="0 0 491 494.32"><defs><style>.cls-1,.cls-2,.cls-4,.cls-5{fill:none;}.cls-1,.cls-2{stroke:#e01798;}.cls-1,.cls-2,.cls-3,.cls-4,.cls-5{stroke-miterlimit:10;}.cls-1,.cls-4,.cls-5{stroke-width:3px;}.cls-2{stroke-width:3.53px;}.cls-3{fill:#da2990;stroke:#da2990;}.cls-4{stroke:#ffccef;}.cls-5{stroke:#f272cb;}</style></defs><title>Отзывы</title><path class="cls-1" d="M266,248.91c1.15,0.41,8.27,7.29,9,17.12,0.09,1.14.6,9.19-4.75,14-5.91,5.31-27.81,2.36-28.43,4.81s21.41,5.57,29.43,12.19c3.58,3,7.11,8.27,14.25,18.5,4.49,6.43,8.08,11.81,10.5,15.5" transform="translate(-20 -15.27)"/><path class="cls-1" d="M294.12,328.09l1.94,3.47c2.42-3.69,6.3-9.61,10.79-16C314,305.29,317.52,300,321.1,297c8-6.62,30.91-11.22,30.29-13.69s-23.39,2-29.29-3.31c-5.35-4.81-4.84-12.86-4.75-14,0.77-9.82,8.38-16.16,9.53-16.56" transform="translate(-20 -15.27)"/><line class="cls-1" x1="198.5" y1="348.73" x2="214.01" y2="472.98"/><path class="cls-1" d="M71.14,365.74" transform="translate(-20 -15.27)"/><path class="cls-2" d="M423.93,120.79c0.36,4.32,1.73,8.61,1.25,8.61-0.22,0-.25-0.9-1.13-6.41-0.39-2.46-.81-4.92-1.21-7.38-0.83-5.17-1.4-8.5-2.56-8.82a3.29,3.29,0,0,0-4.13,2.48c-0.52,2.13.49,5,.91,8.25,0.9,7,2.43,15.63,1.74,15.76-0.52.1-3.25-4-4.16-6.77-1.41-4.22-1.88-4.79-3.47-6.14s-2.58-.42-3.62.85-1,3.22.87,7.72a56.45,56.45,0,0,0,4.64,9.06c2,3.12,3.86,6.36,5.58,9.67l3.54,6.81" transform="translate(-20 -15.27)"/><path class="cls-2" d="M431.23,116.91c0.12,4.34,1.74,11.35,1.25,11.33-0.21,0-.44-3.5-1-9-0.26-2.48-.54-5-0.8-7.44-0.54-5.21-.93-8.57-2.07-9a3.29,3.29,0,0,0-4.26,2.25c-0.64,2.1.21,5,.45,8.29,0.51,7,1.55,15.74.86,15.83" transform="translate(-20 -15.27)"/><path class="cls-2" d="M441.06,124.82" transform="translate(-20 -15.27)"/><path class="cls-2" d="M441.73,117.67" transform="translate(-20 -15.27)"/><path class="cls-2" d="M438.65,118.31c0.12,4.34,1.31,8.36.83,8.33-0.21,0,0-.51-0.59-6-0.26-2.48-.54-5-0.8-7.44-0.54-5.21-.93-8.57-2.07-9a3.29,3.29,0,0,0-4.26,2.25c-0.64,2.1.21,5,.45,8.29,0.51,7,.95,13.39.25,13.49" transform="translate(-20 -15.27)"/><path class="cls-2" d="M439.48,126.64c0.69-.1,1.31-2.24.8-9.26-0.24-3.28-1.09-6.19-.45-8.29a3.29,3.29,0,0,1,4.26-2.25c1,0.34,1.43,3,2.08,7.14a29.94,29.94,0,0,0,.69,3.22h0a15.62,15.62,0,0,1,.52,2.86c0.09,1.15.34,1.87,0.43,3.2,0.32,4.46.72,5.88,0.32,10.91-0.38,4.82-.32,7.57-0.51,10.07L447,149.48" transform="translate(-20 -15.27)"/><path class="cls-2" d="M446.7,121" transform="translate(-20 -15.27)"/><path class="cls-2" d="M169.22,122.92c-0.36,4.32-1.73,8.61-1.25,8.61,0.22,0,.25-0.9,1.13-6.41,0.39-2.46.81-4.92,1.21-7.38,0.83-5.17,1.4-8.5,2.56-8.82A3.29,3.29,0,0,1,177,111.4c0.52,2.13-.49,5-0.91,8.25-0.9,7-2.43,15.63-1.74,15.76,0.52,0.1,3.25-4,4.16-6.77,1.41-4.22,1.88-4.79,3.47-6.14s2.58-.42,3.62.85,1,3.22-.87,7.72a56.45,56.45,0,0,1-4.64,9.06c-2,3.12-3.86,6.36-5.58,9.67L171,156.61" transform="translate(-20 -15.27)"/><path class="cls-2" d="M161.92,119c-0.12,4.34-1.74,11.35-1.25,11.33,0.21,0,.44-3.5,1-9,0.26-2.48.54-5,.8-7.44,0.54-5.21.93-8.57,2.07-9a3.29,3.29,0,0,1,4.26,2.25c0.64,2.1-.21,5-0.45,8.29-0.51,7-1.55,15.74-.86,15.83" transform="translate(-20 -15.27)"/><path class="cls-2" d="M152.09,127" transform="translate(-20 -15.27)"/><path class="cls-2" d="M151.42,119.81" transform="translate(-20 -15.27)"/><path class="cls-2" d="M154.5,120.44c-0.12,4.34-1.31,8.36-.83,8.33,0.21,0,0-.51.59-6,0.26-2.48.54-5,.8-7.44,0.54-5.21.93-8.57,2.07-9a3.29,3.29,0,0,1,4.26,2.25c0.64,2.1-.21,5-0.45,8.29-0.51,7-.95,13.39-0.25,13.49" transform="translate(-20 -15.27)"/><path class="cls-2" d="M153.67,128.78c-0.69-.1-1.31-2.24-0.8-9.26,0.24-3.28,1.09-6.19.45-8.29a3.29,3.29,0,0,0-4.26-2.25c-1,.34-1.43,3-2.08,7.14a29.94,29.94,0,0,1-.69,3.22h0a15.62,15.62,0,0,0-.52,2.86c-0.09,1.15-.34,1.87-0.43,3.2-0.32,4.46-.72,5.88-0.32,10.91,0.38,4.82.32,7.57,0.51,10.07l0.59,5.23" transform="translate(-20 -15.27)"/><path class="cls-2" d="M146.44,123.08" transform="translate(-20 -15.27)"/><polygon class="cls-3" points="147.3 39.76 143.55 38.64 140.51 41.09 140.41 37.19 137.14 35.05 140.83 33.75 141.85 29.98 144.22 33.08 148.13 32.89 145.91 36.11 147.3 39.76"/><polygon class="cls-3" points="123.31 56.22 119.56 55.1 116.52 57.55 116.42 53.65 113.15 51.51 116.84 50.21 117.86 46.44 120.23 49.54 124.14 49.35 121.92 52.56 123.31 56.22"/><polygon class="cls-3" points="160.02 64.35 156.27 63.23 153.22 65.68 153.13 61.77 149.86 59.64 153.54 58.34 154.57 54.57 156.94 57.67 160.84 57.48 158.62 60.7 160.02 64.35"/><polygon class="cls-3" points="177.62 36.64 173.87 35.52 170.82 37.98 170.73 34.07 167.46 31.93 171.14 30.63 172.16 26.86 174.54 29.96 178.44 29.77 176.22 32.99 177.62 36.64"/><polyline class="cls-3" points="148.85 18.04 148.75 14.13 145.48 12 149.17 10.7 150.19 6.92 152.56 10.03 156.47 9.84 154.25 13.05 155.64 16.71 151.89 15.59 148.85 18.04"/><polygon class="cls-3" points="99.09 21.94 102.83 23.06 105.88 20.6 105.97 24.51 109.25 26.65 105.56 27.95 104.54 31.72 102.16 28.61 98.26 28.81 100.48 25.59 99.09 21.94"/><polygon class="cls-3" points="117.58 2.36 121.33 3.48 124.37 1.02 124.47 4.93 127.74 7.07 124.05 8.37 123.03 12.14 120.66 9.04 116.75 9.23 118.97 6.01 117.58 2.36"/><polygon class="cls-3" points="63.28 21.94 67.02 23.06 70.07 20.6 70.16 24.51 73.44 26.65 69.75 27.95 68.73 31.72 66.35 28.61 62.45 28.81 64.67 25.59 63.28 21.94"/><polyline class="cls-3" points="92.05 40.54 92.14 44.44 95.41 46.58 91.73 47.88 90.7 51.65 88.33 48.55 84.42 48.74 86.65 45.52 85.25 41.87 89 42.99 92.05 40.54"/><polygon class="cls-3" points="399.85 34.47 403.6 35.59 406.64 33.14 406.74 37.05 410.01 39.18 406.32 40.48 405.3 44.26 402.93 41.15 399.02 41.34 401.24 38.13 399.85 34.47"/><polygon class="cls-3" points="423.84 18.01 427.59 19.13 430.63 16.68 430.73 20.59 434 22.72 430.31 24.02 429.29 27.8 426.92 24.69 423.01 24.88 425.23 21.67 423.84 18.01"/><polygon class="cls-3" points="387.13 9.88 390.88 11 393.93 8.55 394.02 12.46 397.29 14.59 393.61 15.89 392.58 19.67 390.21 16.56 386.31 16.75 388.53 13.54 387.13 9.88"/><polyline class="cls-3" points="398.3 56.19 398.4 60.1 401.67 62.23 397.99 63.53 396.96 67.31 394.59 64.2 390.68 64.39 392.9 61.18 391.51 57.52 395.26 58.64 398.3 56.19"/><polygon class="cls-3" points="448.06 52.29 444.32 51.18 441.27 53.63 441.18 49.72 437.9 47.58 441.59 46.28 442.61 42.51 444.99 45.62 448.89 45.42 446.67 48.64 448.06 52.29"/><polygon class="cls-3" points="429.57 71.87 425.82 70.75 422.78 73.21 422.68 69.3 419.41 67.16 423.1 65.86 424.12 62.09 426.49 65.19 430.4 65 428.18 68.22 429.57 71.87"/><polygon class="cls-3" points="483.88 52.29 480.13 51.18 477.08 53.63 476.99 49.72 473.71 47.58 477.4 46.28 478.42 42.51 480.8 45.62 484.7 45.42 482.48 48.64 483.88 52.29"/><polyline class="cls-3" points="455.11 33.7 455.01 29.79 451.74 27.65 455.43 26.35 456.45 22.58 458.82 25.68 462.73 25.49 460.5 28.71 461.9 32.36 458.15 31.24 455.11 33.7"/><polyline class="cls-4" points="433.83 196.73 441.5 196.67 491 196.67"/><line class="cls-4" x1="378.67" y1="197.17" x2="407.67" y2="196.94"/><line class="cls-4" x1="441.5" y1="218.67" x2="441.5" y2="196.67"/><line class="cls-4" x1="432.94" y1="218.67" x2="479.75" y2="218.67"/><line class="cls-4" x1="395" y1="218.67" x2="403.88" y2="218.67"/><line class="cls-4" x1="33.59" y1="176.96" x2="33.59" y2="197.96"/><line class="cls-4" x1="16.59" y1="197.96" x2="118.37" y2="197.96"/><line class="cls-4" x1="95.09" y1="176.96" x2="95.09" y2="197.96"/><polyline class="cls-4" points="1.59 218.46 95.09 218.46 119.34 218.46"/><line class="cls-4" x1="95.09" y1="240.46" x2="95.09" y2="218.46"/><polyline class="cls-4" points="41.09 240.46 79.09 240.46 123.08 240.46"/><line class="cls-4" x1="80.34" y1="260.96" x2="80.34" y2="240.46"/><line class="cls-4" x1="404.75" y1="173.73" x2="404.75" y2="196.96"/><line class="cls-4" x1="378.67" y1="248.46" x2="378.67" y2="248.46"/><line class="cls-4" x1="378.67" y1="221.47" x2="378.67" y2="244.32"/><line class="cls-4" x1="378.67" y1="28.06" x2="378.67" y2="197.17"/><path class="cls-1" d="M299.41,201.71c-4.43,2.66-6.93,7.39-6.33,12a11.94,11.94,0,0,0,4.33,7.5" transform="translate(-20 -15.27)"/><path class="cls-1" d="M241.88,175.25v28.08c0,30.11,24.69,55.32,54.81,55.32h0c30.11,0,54.69-25.21,54.69-55.32V176.13" transform="translate(-20 -15.27)"/><path class="cls-1" d="M296.88,124.09" transform="translate(-20 -15.27)"/><path class="cls-1" d="M320.63,230.59c0,9.94-10.8,18-24.12,18s-24.12-8.06-24.12-18h48.25Z" transform="translate(-20 -15.27)"/><path class="cls-1" d="M283.32,186.84c-1.2-4.85-5-5.72-10-5.87s-10,.39-11.48,5.13" transform="translate(-20 -15.27)"/><path class="cls-1" d="M351.38,186.84h0.13c8.63,0,15.63,5.54,15.63,12.38s-7,12.38-15.62,12.38h-0.12V186.84Z" transform="translate(-20 -15.27)"/><path class="cls-1" d="M241.88,211.46h-0.12c-8.63,0-15.62-5.54-15.62-12.37s7-12.37,15.63-12.37h0.13v24.74Z" transform="translate(-20 -15.27)"/><line class="cls-1" x1="238.3" y1="155.43" x2="260.47" y2="152.63"/><path class="cls-1" d="M308.12,186.71c1.2-4.85,5-5.72,10-5.87s10,0.39,11.48,5.13" transform="translate(-20 -15.27)"/><line class="cls-1" x1="313.14" y1="155.3" x2="290.97" y2="152.51"/><path class="cls-1" d="M359.26,488.25L369.5,377.18a32.76,32.76,0,0,1,2.7-10.33l3.33-7.47a59.56,59.56,0,0,1,13.73-18.84l1.8-1.66q10.13-9.33,19.42-19.51l16-17.5A95.4,95.4,0,0,0,449.19,258l1.57-7.17a175.28,175.28,0,0,0,2.12-63.68l-5.67-37.68-25,5,4.5,48.09a80.43,80.43,0,0,1-4.73,35.61l-2.39,6.4A65,65,0,0,1,393.4,276.8,34.78,34.78,0,0,1,376,282.11l-26.08.87" transform="translate(-20 -15.27)"/><path class="cls-1" d="M425.84,224.25c-11,15.2-33.72,15.64-48.84,6.75,2.1,7,5.06,13.85,10.29,19.09C391,255,398,256,401,262a3.49,3.49,0,0,1-1,2c-9,3-18,0-27,0-5,0-10-3-15-5-8-4-14-12-19.92-18.83" transform="translate(-20 -15.27)"/><path class="cls-1" d="M254.17,238C253,246,248,253,241,258c-14,9-29,10-44,5,16-2,23-20,22-34-7,10-19,18-31,11s-19-22-16-35c2,1,3,2,5,3,4,3,7,6,12,5,11-3,15-15,15-25,3-25-4-51,5-75,7-14,18-28,33-32,16-5,34-8,50-2,2,0,5,1,7,0,8-6,18-4,27-4,16,2,31,7,43,19,1,2,3,3,5,5,7,9,12,19,13,30,1,26,0,52,8,77,5,14,21,14,32.61,12.21" transform="translate(-20 -15.27)"/><path class="cls-1" d="M351.38,177.77v-2.33a5.59,5.59,0,0,0-2.12-4c-16.66-13.5-28-17.83-37.36-26.61-14.18-13.28-25.31-24.73-27-23.33-1.3,1.08,3.27,9.54,7.33,15.33,5.35,7.61,9.81,10.59,9,12-1.12,2-11-1.46-17.33-4.33-9.46-4.29-21.92-9.94-26.67-21.33-0.77-1.84-1.17-3.45-2.33-3.67-3.77-.7-10.48,14.25-13,26.33-1.46,7,0,15.31,0,31.43" transform="translate(-20 -15.27)"/><path class="cls-1" d="M243.33,285l-26.08-.87a34.78,34.78,0,0,1-17.44-5.31,65,65,0,0,1-26.16-32.22l-2.39-6.4a80.43,80.43,0,0,1-4.73-35.61L171,156.5l-25-5-5.67,37.68a175.28,175.28,0,0,0,2.12,63.68L144,260a95.4,95.4,0,0,0,22.72,43.86l16,17.5q9.28,10.17,19.42,19.51l9.6,8.84A21.07,21.07,0,0,1,218.5,364h0" transform="translate(-20 -15.27)"/><line class="cls-5" x1="306.42" y1="492.82" x2="38.75" y2="492.82"/><line class="cls-1" x1="458" y1="472.98" y2="472.98"/></svg>