<svg id="Layer_1" data-name="Layer 1" xmlns="http://www.w3.org/2000/svg" viewBox="0 0 512 512"><defs><style>.cls-1{fill:#8f005c;}</style></defs><title>instagram_hover</title><path class="cls-1" d="M370.7,0H141.29C63.38,0,0,63.39,0,141.29V370.7C0,448.61,63.38,512,141.29,512H370.7C448.61,512,512,448.61,512,370.7V141.29C512,63.39,448.61,0,370.7,0Zm95.87,370.7a96,96,0,0,1-95.87,95.87H141.29A96,96,0,0,1,45.43,370.7V141.29a96,96,0,0,1,95.86-95.87H370.7a96,96,0,0,1,95.87,95.87V370.7h0Z" transform="translate(0 0)"/><path class="cls-1" d="M256,124.08c-72.75,0-131.93,59.18-131.93,131.93S183.25,387.93,256,387.93,387.93,328.75,387.93,256,328.75,124.08,256,124.08Zm0,218.42A86.5,86.5,0,1,1,342.5,256,86.6,86.6,0,0,1,256,342.5Z" transform="translate(0 0)"/><path class="cls-1" d="M393.46,85.56A33.29,33.29,0,1,0,417,95.31,33.44,33.44,0,0,0,393.46,85.56Z" transform="translate(0 0)"/></svg>