<svg id="Слой_3" data-name="Слой 3" xmlns="http://www.w3.org/2000/svg" viewBox="0 0 1161.95 1111.5"><defs><style>.cls-1{fill:#e01798;}</style></defs><title>logo</title><path class="cls-1" d="M1449.25,879.22c-2.14-10.41-11.71-33.44-22.11-40.4-12.78-8.42-33.59-13.62-52.26-12.17s-24.64,5.05-38.49,12.17-29.61,27.32-29.61,27.32-1-14.39-2.45-24.41S1290,805.84,1290,805.84s20.12-27.62,27.7-44c7.81-16.76,19-59.3,9.11-121-10.87-68-53.56-113.86-81.26-143.48s-107.13-69.79-115.32-75.53-71.7-29.69-72.16-31.6,17.22-28.24,28.16-41.09,34-18.59,44-19.13c7.19-.46,41.78,1.07,57.54,4.44s26.4,16.07,33.82,29.69,13.93,19.13,6.2,34.66c-3.06,6.43-9,10.25-13.77,13.24a48,48,0,0,1-28.54,7.12c-3.9-.23-7.65-1-10.25-2.6-9.26-5.82-10.48-12.86-11.48-19.67-1.38-9.79-3.37-18.37-8.65-23.64s-13.39-2.14-15.3,1.22,0.31,12.63,2.68,27.7c1.45,9.34,6,16.07,15.53,25.4,11.1,10.79,14.46,9.72,28.7,11.4,11.71,1.45,19.44-1.91,29.61-5.2,9.72-3.21,22.27-11.71,27.32-24.64,6.58-16.91,4.06-22.5,3.6-29.15s-11.4-27.16-15.07-31.37c-14.08-15.76-26.71-26.32-38.26-29.77-7-2.14-20.43-4-32.06-5.28a199.88,199.88,0,0,0-40-.38c-16,1.38-27.09.84-43.92,4.82a106.24,106.24,0,0,0-24.26,8.8,50.45,50.45,0,0,1-22.34,5.74c-5.74.15-3.83,2-12.7,0.31-9.26-1.76-8.34,1.22-17-11.94-4.9-7.5-5-12.93-2.37-24.18a19.49,19.49,0,0,1,2.07-5.13,28.22,28.22,0,0,1,18.14-13.77c4.51-1.07,4.36-1.68,11.86-1.91,9.26-.23,19.21-2.68,15.92,8.34-2.68,9,2.3,22.5,4.74,23.26,9.41,2.83,11.63,2.91,18.06-2.37,9-7.35,6.73-16.76,4.67-20.58-7.19-13.54-15.53-10.79-17.14-13.39-2.22-3.83-2.52-10,1-13.85,2.3-2.53,25.94-24.72,30.15-27.78,15.3-11.25,21.73-4.82,28.16-15.76,4.82-8.11,3.52-11.63,1.45-18.21-1.15-3.67-5.74-13.85-14.84-15.3-4.9-.77-13.85.54-13.85,0.54s1.15-5.36,2.91-11.48c2.53-9.34,5.89-25.86,5.2-34.43-0.92-13.24-8.11-23.49-15.76-28.7s-20-.54-19.36-0.77-2.75-11.55-10.79-17.22c-5.89-4.21-13.54-2.91-18.14-1.91-5.59,1.3-10,6.66-12.7,4.06-2.53-2.45-5.2-9.79-15.76-13.85s-14.84,8.65-15.53,6.43-19-21.73-30.15-30.3S930.21,41.47,920,43.08s-32.52,14-32.52,14,1.91-2.91,5.74-7.65,5.43-15.92,5.43-15.92l-10.79.31s-0.69-9.87-3.21-16S869,0,869,0s-13.09,11.78-15.61,17.83-3.21,16-3.21,16l-10.87-.38s1.61,11.17,5.43,16,5.74,7.65,5.74,7.65-22.34-12.47-32.52-14-28.39.92-39.56,9.49S749,80.81,748.32,82.95s-5.05-10.48-15.53-6.43-13.24,11.4-15.84,13.85c-2.6,2.6-7-2.75-12.63-4.06-4.67-1-12.24-2.3-18.21,1.91-8,5.66-11.48,17-10.71,17.22s-11.78-4.51-19.44.69-14.77,15.53-15.76,28.77c-0.61,8.57,2.68,25.1,5.28,34.43,1.68,6.12,2.83,11.48,2.83,11.48s-8.88-1.3-13.85-.54c-9.11,1.45-13.62,11.63-14.77,15.3-2.14,6.58-3.37,10,1.38,18.21,6.5,10.94,12.93,4.51,28.24,15.76,4.13,3.06,27.85,25.25,30.15,27.78,3.52,3.83,3.14,10,.92,13.85-1.53,2.6-9.87-.15-17.06,13.39-2.07,3.83-4.29,13.24,4.67,20.51,6.43,5.36,8.57,5.28,18,2.45,2.45-.77,7.5-14.23,4.82-23.26-3.29-11,6.66-8.57,15.92-8.34,7.42,0.23,7.35.84,11.86,1.91a27.89,27.89,0,0,1,18.06,13.77,19.74,19.74,0,0,1,2.14,5.13c2.6,11.25,2.45,16.68-2.45,24.18-8.57,13.16-7.73,10.18-16.91,11.94-8.88,1.68-7-.15-12.78-0.31a51,51,0,0,1-22.34-5.74,104,104,0,0,0-24.18-8.8c-16.83-4-28-3.44-44-4.82a199.12,199.12,0,0,0-39.94.38c-11.63,1.3-25.1,3.14-32.06,5.28-11.55,3.44-24.26,14-38.26,29.77-3.67,4.21-14.62,24.64-15.07,31.37s-3,12.24,3.6,29.15c5.05,12.93,17.52,21.43,27.24,24.64,10.25,3.29,18,6.66,29.69,5.2,14.23-1.68,17.6-.61,28.7-11.48,9.57-9.26,14.08-16,15.53-25.33,2.3-15.07,4.51-24.41,2.6-27.7s-10-6.5-15.3-1.22-7.19,13.85-8.57,23.64c-1,6.81-2.22,13.85-11.48,19.67-2.6,1.61-6.35,2.37-10.25,2.6a48.34,48.34,0,0,1-28.62-7.12c-4.67-3-10.64-6.81-13.77-13.16-7.65-15.61-1.15-21.12,6.27-34.74s18-26.32,33.75-29.69,50.35-4.9,57.54-4.44c10,0.54,33,6.2,44,19.13s28.7,39.18,28.24,41.09-64,25.79-72.24,31.6c-8.11,5.66-87.46,45.91-115.24,75.53S422,572.91,411.1,640.86c-9.79,61.68,1.3,104.22,9.11,121,7.65,16.38,27.78,44,27.78,44S435,831.7,433.59,841.72s-2.37,24.41-2.37,24.41S415.46,846,401.61,838.89,381.71,828.1,363,826.65s-39.41,3.75-52.19,12.24c-10.41,6.89-20,29.92-22.19,40.33-2.22,10.71,1.53,34.43,5.43,42.62s17.14,23,23.64,25.79c11.94,5.2,24.1,10.87,31.22,10.33,9.18-.77,14.39-0.77,19.59-5.74,2.53-2.45,3.37-10.56-1.38-13.39s-14.54-3.21-20.58-5.28c-4.21-1.38-23.65-4.59-31.14-15.92-9-13.7-9.49-22.19-8.72-35.43,0.77-12.55,5.89-25.48,15.61-30.15,10.1-4.74,13.16-8,33.82-8,20.81,0,29.61,1.45,44.46,12.93s49.74,55.71,54.79,62.67,19.82,26.94,19.82,26.94-11,12-14.39,27.7c-3.21,15.3-4.51,10.41-2.83,42.09,0.54,10.25,12.55,33.36,21.66,41.47,9.41,8.34,23.87,18.06,38.95,22.34,21,5.89,38.57,8,48.13,8s36,0.92,53-3.52,41.47-18.52,47.44-23.26c12.09-9.57,22.34-17.22,22.34-17.22s3.83,24.26,5.74,29,10.18,17.52,19.82,24.64c9.79,7.19,19.05,13,31.83,13.62s33-5.36,37.8-9.79,10-9.57,13.24-19.51c0.69-2.14,2.37-19.59-8.8-20.89s-19.36,13.85-23.57,17.45c-2.75,2.3-7.27,9.18-18.21,6.43-11.17-2.83-23-14.08-25.1-20.51-3.83-11.48-3.06-31.91,1.68-40.25s26.17-26.4,33.82-27.7,28.31-5.13,46.52-3.21,38.26,5.43,38.26,5.43-20.58,14-24.41,22.19-3,21-1.91,23.8c1.45,3.52,1.53,8.19,8.8,14.31,6.89,5.82,13.7,8.11,18.14,8.11s15-1.76,12.47-8.8c-1.3-3.6-4.82-4.21-8.65-6.27-3.6-2-7.35-4.36-9.79-7-4-4.13-5.51-12.78-4.44-17.45,1.53-6.66,11.71-17.37,17.45-18s18.82-.31,18.82-0.31,13.08-.31,18.82.31,15.84,11.32,17.45,18c1.07,4.67-.46,13.31-4.44,17.45a41.15,41.15,0,0,1-9.79,7c-3.83,2.07-7.35,2.68-8.65,6.27-2.6,7,8,8.8,12.4,8.8s11.32-2.3,18.21-8.11c7.27-6.12,7.35-10.79,8.72-14.31,1.15-2.75,2.07-15.53-1.91-23.8C916,1013,895.47,998.9,895.47,998.9s20-3.52,38.26-5.43,38.87,1.91,46.52,3.21,29,19.44,33.82,27.78,5.51,28.7,1.68,40.17c-2.22,6.43-13.93,17.68-25.18,20.51-10.87,2.75-15.38-4.13-18.14-6.43-4.21-3.6-12.47-18.75-23.57-17.45s-9.49,18.75-8.8,20.89c3.21,9.95,8.42,15.07,13.24,19.51s25,10.41,37.8,9.79,22-6.43,31.76-13.62,18-19.82,19.9-24.64,5.74-29,5.74-29,10.25,7.65,22.27,17.22c6,4.74,30.61,18.82,47.52,23.26s43.39,3.52,53,3.52,27.16-2.07,48.13-8c15.07-4.29,29.46-14,38.87-22.34,9.11-8.11,21.2-31.22,21.73-41.47,1.68-31.68.38-26.78-2.91-42.09-3.37-15.69-14.31-27.7-14.31-27.7s14.77-20,19.82-26.94,39.94-51.19,54.79-62.67,23.65-12.93,44.46-12.93c20.58,0,23.72,3.21,33.82,8,9.72,4.67,14.84,17.6,15.61,30.15,0.77,13.24.31,21.73-8.8,35.43-7.5,11.33-26.93,14.54-31.07,15.92-6,2.07-15.76,2.37-20.58,5.28s-3.9,10.94-1.45,13.39c5.28,5,10.48,5,19.67,5.74,7.12,0.54,19.21-5.13,31.14-10.33,6.5-2.76,19.74-17.52,23.72-25.79S1451.54,889.93,1449.25,879.22Zm-328.73-434.1c25.33,12.09,45.3,26.32,62.52,37.11a111.17,111.17,0,0,1,19.9,16c16.91,17.14,52.72,53.79,63,67.41,14.08,18.44,23.64,48.44,29.23,61.22s9,35.58,9,72c0.15,37.34-30.61,93.74-30.61,93.74l-23-12.09s24.41-47.6,26.78-63.74c2.6-17.22,3.06-50.81-1.22-70.17-4.82-21.66-21.43-60.3-33.44-74-7.42-8.42-49.51-54.79-61.6-63.74-21.66-15.92-53.95-34.2-70.17-41.47-15.84-7.12-82.41-34.43-82.41-34.43l16.15-18.44S1103.3,436.86,1120.52,445.12ZM508,778.6c-11.86-7-17.37-32.52-23.19-50.2-8.65-26.32-9.26-43.23-7-59.3,1.76-12.32,1.84-20,13.62-51.19,12.32-32.52,38.64-64.43,89.45-99.48,50.66-34.89,63.44-35.58,81.8-44,15.15-7,63.89-25.86,68.26-27.47,0.46,1,7.58,5.28,17.52,11.55,8.57,5.36,29.69,13.77,49.43,13.7,8.26-.08,25.25-7.12,41.17-19.74C851.78,442.29,869,420,869,420s17.14,22.27,29.92,32.44c15.92,12.63,32.9,19.67,41.17,19.74,19.67,0.08,40.86-8.34,49.43-13.7,10.33-6.5,17.45-10.87,17.45-11.63,3.6,1.38,53.11,20.51,68.33,27.55,18.37,8.42,31.14,9.11,81.72,44,50.89,35,77.21,67,89.45,99.48,11.78,31.22,11.86,38.87,13.62,51.19,2.3,16.07,1.68,33-6.89,59.3-5.82,17.68-11.32,43.23-23.19,50.2-13.85,8.11-24.49,11.4-33.29,17.68-10.71,7.73-16.45,16.3-17.68,21-2.37,9.41,2.07,7.19-12.7,19.59-22.11,18.67-51.65,29.92-65.88,36.42-19.28,8.65-40.17,20-76.37,30.07-25.86,7.27-54.18,16.15-78.89,18.67-29.69,3.06-76.21,3.11-76.21,3.11s-46.6,0-76.21-3.11c-24.72-2.53-53.11-11.4-78.89-18.67-36.19-10.1-57.08-21.43-76.37-30.07-14.23-6.5-43.77-17.75-66-36.42-14.69-12.4-10.25-10.18-12.63-19.59-1.22-4.74-7-13.31-17.75-21C532.38,790,521.82,786.71,508,778.6Zm25.71,74.22c-7.35,8.88-10.56,11.78-10.56,11.78l-45.3-52v-1.91s12.17-8.65,24.26-6.43,26.25,7.5,32.83,19.82C537.66,829.18,541,843.87,533.68,852.82ZM842.21,393.09c7.65-.31,6.5,16.15-8.65,31.3-19.74,19.74-23.26,20.74-37.27,23.87-10.64,2.45-26,1.07-32.22,0-11.48-1.91-25.18-8-39.87-27a24.4,24.4,0,0,1-4.06-8,4,4,0,0,1,2.68-5,271.13,271.13,0,0,1,42.85-9.41C796.61,394.69,838.92,393.24,842.21,393.09ZM803,337.3a10,10,0,0,1,7.5,1.76c8.19,5.74,33.52,21.58,27.78,25.4s-21.58,5.66-26.78,4.29c-3.52-1-10.1-12.09-14.16-19.59A8.08,8.08,0,0,1,803,337.3ZM972.3,398.9a267.54,267.54,0,0,1,42.77,9.41,4,4,0,0,1,2.75,5,23.35,23.35,0,0,1-4.13,8c-14.62,19.05-28.31,25.1-39.79,27-6.2,1.07-21.58,2.45-32.21,0-14.08-3.14-17.52-4.13-37.34-23.87-15.15-15.15-16.22-31.6-8.57-31.22C899.07,393.24,941.38,394.69,972.3,398.9Zm-44.84-59.84A10.25,10.25,0,0,1,935,337.3a8.12,8.12,0,0,1,5.66,11.86c-4.13,7.5-10.71,18.59-14.16,19.59-5.28,1.45-21-.46-26.78-4.29S919.34,344.8,927.45,339.06ZM1203,824.13c6.66-12.32,20.74-17.52,32.9-19.82s24.18,6.43,24.18,6.43v1.91l-45.22,52s-3.21-2.91-10.56-11.78S1200.33,829.18,1203,824.13ZM992,222.9c4.82-11,25.94-18.29,35.35-26.78,11.78-10.79,7.27-15.38,3.9-20.58-6.5-10-14.39-11-12.93-14.39s8.42-9.18,12.93-17.22a43.57,43.57,0,0,0,5.2-25.33s18.21,8.65,26.32,14.39,13.62,25.1,14.84,34.89c1.45,11.32-5.74,32.06-12.93,49.74-4.13,10.18-11,17.06-16.22,20.35a12.33,12.33,0,0,1-9.57,1.38c-2.68-.77-6-1.76-8.19-2.6-11.17-4.59-28.7-6-28.7-6S989.44,228.8,992,222.9Zm-87.54-65c-1.91-8.65-11.48-20.12-11.48-20.12V91.37s23-11.48,35-11.94a83,83,0,0,0,8.42-.61,2.26,2.26,0,0,0,.69.15c16.91,2.83,19.13,5.66,27.78,11.55,8.49,5.82,10.56,11.17,12.86,16.6,6.43,15.3,10.64,38.72,11.48,49.28,1.15,16-4.36,34.89-10.56,51.65-4.36,11.78-10,18.14-10,18.14S942,221.6,928.45,220c-6.66-.77-35.43-1.45-35.43-1.45a189.17,189.17,0,0,0,5.89-22.42C900.67,186,906.41,166.43,904.5,157.86Zm-155.72-1.45c0.77-10.56,5.05-34,11.48-49.28,2.3-5.43,4.29-10.79,12.86-16.6S783.9,81.8,800.89,79a3.16,3.16,0,0,0,.69-0.15c0.54,0.15,2.52.31,8.42,0.54,12,0.54,34.89,12,34.89,12v46.37s-9.57,11.48-11.48,20.12,3.83,28.16,5.66,38.26a196.43,196.43,0,0,0,5.82,22.42s-28.7.69-35.35,1.45c-13.54,1.61-40.17,6.2-40.17,6.2s-5.66-6.35-10.1-18.14C753.06,191.3,747.56,172.4,748.78,156.41Zm-12.93,74.38s-17.45,1.38-28.7,6c-2.14.84-5.43,1.84-8.11,2.6a12.33,12.33,0,0,1-9.57-1.38c-5.2-3.29-12.09-10.18-16.22-20.35-7.19-17.68-14.39-38.41-12.93-49.74,1.22-9.79,6.66-29.15,14.77-35,8.19-5.66,26.32-14.31,26.32-14.31a43.27,43.27,0,0,0,5.28,25.33c4.44,8,11.48,13.93,12.93,17.22s-6.5,4.36-12.93,14.39c-3.37,5.2-7.88,9.79,3.9,20.58,9.34,8.49,30.53,15.76,35.35,26.78C748.47,228.8,735.85,230.79,735.85,230.79ZM720,351.31c15.38-1.45,16.3-.54,24-8.88,9.72-10.64,13.16-20.28,16.07-30.84,3.37-12.17.31-17.91-3.14-28-3.83-11.25-15.76-18.14-15.76-18.14L869,258.18l127.87,7.27s-12,6.89-15.84,18.14c-3.37,10.1-6.43,15.84-3.06,28,2.91,10.56,6.27,20.2,16,30.84,7.65,8.34,8.65,7.42,24,8.88,8.26,0.77,37.19-1,37.19-1l-1.91,2.91-15.3,31.3L982,375s10-19.59,2.37-33-11.94-20.58-22-26.78-42.62-6.2-47.83-3.83-44,44-44,44l-1.61.38-1.61-.38s-38.72-41.63-44-44-37.8-2.45-47.83,3.83-14.31,13.39-22,26.78S756,375,756,375L700,384.52l-15.3-31.3-2-2.91S711.74,352.07,720,351.31ZM433.75,698.86c0.15-36.42,3.44-59.3,9-72S458,584.08,472,565.64c10.33-13.62,46.14-50.27,63.05-67.41a111.17,111.17,0,0,1,19.9-16c17.14-10.79,37.19-25,62.44-37.11,17.29-8.26,75.91-30.61,75.91-30.61L709.37,433s-66.5,27.32-82.41,34.43c-16.15,7.27-48.44,25.56-70.09,41.47-12.17,9-54.18,55.32-61.6,63.74-12.09,13.77-28.62,52.34-33.44,74-4.29,19.36-3.83,53-1.3,70.17,2.45,16.15,26.78,63.74,26.78,63.74l-23,12.09S433.67,736.2,433.75,698.86ZM457.31,900.8c-6.12-8.65-15.84-21.43-14.31-41.24a56.92,56.92,0,0,1,13.7-32.83l91,89.61s-18.67.15-27.85,1.91c-18.14,3.52-33,17.75-33,17.75S463.36,909.37,457.31,900.8Zm99.55,50c20,4.21,28.08,11,32.22,21.66a43.76,43.76,0,0,1,2.22,20.12s-16,.38-21,0c-2.75-.23-48.67-20.35-54.41-22.5-6.2-2.22-12.09-4.29-12.09-4.29l2.68-3.52a47.2,47.2,0,0,1,20.12-13.09C540.87,944.42,544.7,948.24,556.87,950.77Zm126.26,69.17c-8.34,5.43-39.56,21-49.74,24.56s-27.32,10.18-36.65,11.48c-8.8,1.15-13.93,2.37-36.73,0-7.12-.77-20.28-8-31.83-15.61-12.93-8.49-25.4-20.28-28.08-31.91-3-12.86,0-36,0-36l50.73,22s-3.14-1.3-9.87,6.5c-4,4.67-6,9.95-2,19.59,2.6,6.27,3,8.88,19.82,12.78,4.13,1,10.1.54,16.07,0.31,19.44-.69,38.34-7.5,52.8-20.51,1-.92,2-1.84,2.83-2.76,4.21-4.36,4.51-5.28,4.51-5.43l93.36-12S691.39,1014.51,683.13,1019.94Zm-45.61-25.18v-36l8,1.3c8,1.3,76.83,25.18,76.83,25.18Zm323.91-24.41c-18.21,2.22-92.44,6.43-92.44,6.43s-74.22-4.21-92.44-6.43c-14.23-1.68-68.87-17.37-102.84-29.46S577.6,898.12,567.5,891.46A185.79,185.79,0,0,0,549.83,881l15.76-20.12s79.35,38.11,96.65,45.45c23.11,9.87,80.58,29,101.85,34.59,19.9,5.2,51.42,8.42,74.61,8.42,8.75,0,16.08.28,21.35,0.57a161.25,161.25,0,0,0,17.91,0c5.26-.29,12.6-0.57,21.35-0.57,23.19,0,54.64-3.21,74.61-8.42,21.27-5.59,78.74-24.72,101.85-34.59,17.22-7.35,96.57-45.45,96.57-45.45l15.84,20a184,184,0,0,0-17.75,10.56c-10,6.66-72.16,37.34-106.13,49.43S975.59,968.67,961.43,970.36Zm250-21.2a46.62,46.62,0,0,1,20,13.09l2.75,3.52s-6,2.07-12.17,4.29c-5.74,2.14-51.65,22.27-54.33,22.5-5.13.38-21,0-21,0a43.76,43.76,0,0,1,2.22-20.12c4.06-10.64,12.17-17.45,32.22-21.66C1193.21,948.24,1197,944.42,1211.42,949.16Zm-111,9.57v36l-84.86-9.57s68.87-23.87,76.9-25.18Zm137.43,49.74c-2.75,11.63-15.15,23.42-28.08,31.91-11.55,7.58-24.72,14.84-31.91,15.61-22.8,2.37-27.93,1.15-36.65,0-9.41-1.3-26.48-8-36.65-11.48s-41.47-19.13-49.74-24.56-45.3-27-45.3-27l93.43,12c0,0.23.31,1.07,4.44,5.43,0.92,0.92,1.84,1.84,2.83,2.76,14.46,13,33.44,19.82,52.88,20.51,6,0.23,11.86.69,16.07-.31,16.83-3.9,17.22-6.5,19.74-12.78,4-9.64,2-14.92-2-19.59-6.66-7.81-9.79-6.5-9.79-6.5l50.73-22S1240.88,995.61,1237.9,1008.46Zm42.78-107.66c-6,8.57-29.54,35.2-29.54,35.2s-14.84-14.23-33.06-17.75c-9.11-1.76-27.78-1.91-27.78-1.91l90.91-89.61a56.36,56.36,0,0,1,13.7,32.83C1296.51,879.37,1286.72,892.15,1280.67,900.8Z" transform="translate(-288)"/><path class="cls-1" d="M1140,535.32c-11-5.31-.08-3.06-23.43-7.65s-66.32,18.81-68.23,20.41-11.48-10.52-23.59-15.62a217.93,217.93,0,0,0-39.85-11.88c-24.23-4.38-41.13-4.07-56.91,2.39-6,2.44-20.56,12-20.56,12s-22.71-10-37-14.71c-17.54-5.85-35.81-7.91-51.17-8.8-10-.58-47.51,2.07-50.38,2.87s-14.34-8.4-21.92-11.16c-13.87-5-60-1.67-73.89,2.39-10.92,3.2-40.81,19.34-53.56,27.9-17.22,11.56-39.36,57.67-42.8,64.29-4,7.65-16.82,59.74-16.5,63.89s5.1-10.52,5.1-10.52,7.49-25.35,8.93-33.48c1.23-7,12.33-27.93,15.46-33.48,4.14-7.33,19-27.69,24.31-34.83,6.62-8.85,12.67-12,24-17.46,11-5.34,28.62-13.87,35.31-15.78s35.87-7.65,43.52-7.65,19.69-.48,27,2.39a61.55,61.55,0,0,1,14,8.29s-46.1,12.82-67.91,26.78c-22.16,14.19-46.55,37.3-57.71,59.62s-16.9,45-17.22,60.26,1.05,31,14,44.32c13.39,13.79,20.09,19.29,32.2,22.32,17.48,4.37,36.48.08,45.91-2.23,11.08-2.71,19.69-5.34,36.35-18.17,8.93-6.88,29.39-27.9,36-36.67,8-10.52,18-29.73,20.72-43.68,5.82-29.7,4.33-11.47,6.22-35.95,1.91-24.79-2.52-34.23-5.26-44.72-4.3-16.5-18.81-26.78-18.81-26.78a150.2,150.2,0,0,1,39.85-2.55c21.68,1.59,41.13,6.7,53.25,11.8s21.68,8.93,21.68,8.93-16.26,12.75-22.32,25.83c-3.35,7.23-2.23,30.93-2.23,30.93s-33.16,43.68-34.43,46.23c-1.12,2.24-32.52,50.69-47.43,82.33-1.1,2.33-3,4.23-4,6.57C777.62,754,777.62,754,763.27,771.9,746.52,792.74,740,800,716.4,815.58c-0.75.5-14.93,7.78-16,7.87-19.37,1.68-13,2-30,.1-11.91-1.34-11.84-1.84-31.34-5.27-8.69-1.53-32-3-32-3s-10.84-1.91-14,8.93c-1.85,6.31,4.46,12.43,19.45,14.35s84.17,1.59,84.17,1.59,95.65-.64,107.13-4.46,39.54-14.35,44.32-17.54,35.71-21,35.71-21a67.25,67.25,0,0,0,3.2,29.65c1.93,5.29,18.52,22,26.45,24.87,11.84,4.23,29.33,9.49,43.36,10.84,2.93,0.28,1.12,10.52,5.74,22.64,2,5.28,10.84,20.09,10.84,20.09s-3.83-30-3.51-35.71a59.47,59.47,0,0,1,1-8.61s19.66,0.28,24.87-1.91c22.87-9.64,32.2-16.26,39.85-23.82,7.84-7.75,18.38-15.27,25.19-22.73,5.79-6.34,15.34-14.48,18.49-37.62,3.19-23.43,2.38-32.23,2.38-32.23s1.65-9.14-10-19.18c-11.3-9.78-12.42-9.91-23.91-9.57-23.91.72-18.07,0.38-33.24,7.73-12.67,6.14-30.29,28.06-34.75,35.39s-15,21.92-18.81,37.62c-3,12.49-2.23,59.3-2.23,59.3s-13.48-1.42-21.68-5.74a44.88,44.88,0,0,1-23.28-32.2C911,799.4,912.42,779,916,770.31c4.68-11.4,5.5-16.82,22.32-37.62,16.45-20.35,20.49-23.34,38.26-36,17-12.14,26.3-16.42,38.26-17.22,11.3-.75,44.16,1.12,44.16,1.12s12.59-2.67,5.58-8-18.49-2.41-29-3-23.28-2.39-24.39-8.29-3.51-8,15.14-15.62c21.64-8.88,31.6-11.14,49.42-18.17,18.17-7.17,34.2-17.46,45.59-30,4.87-5.34,18-16.1,24.55-30,3.79-8,4-18.33,4-18.33S1153.05,541.63,1140,535.32ZM792.84,553.82c1,9.57,6.55,41.06,2.63,64.56-1.91,11.48-11.24,33.72-19.13,44.72s-29.83,34.39-34.67,38.74c-9.33,8.37-16.5,13.63-31.68,19-5.74,2-16.38,2.26-29,2.27-11.8,0-23.91.32-30.77-9.25s-8.56-44.15-5.58-59.62c2.07-10.76,5.2-20.59,12.27-31.09,4.51-6.7,27.34-41.85,46.71-54.84C728.33,551.77,773,527.83,773,527.83v0.64S791.89,544.25,792.84,553.82ZM971.28,821.26a97.46,97.46,0,0,1,8.55-30.36,159.22,159.22,0,0,1,23.27-36.11,112.92,112.92,0,0,1,23.92-21l7.37-4.83a27.68,27.68,0,0,1,15.17-4.53,19.87,19.87,0,0,1,13.77,5.54l10.11,9.72,0.38,0.89c2.71,22.48-5.68,43.69-16.37,63-0.69,1.25-1.12,2-1.17,2.19-0.18.55-7.92,8.34-14.42,14.82A119.22,119.22,0,0,1,1022.78,836l-7,4.56a64,64,0,0,1-8,4.41,92.3,92.3,0,0,1-38.9,8.6h-1.28ZM931.06,528.71c7.41-2.39,14.11,2.15,14.11,2.15l-27,17-6.93-8.37S923.65,531.1,931.06,528.71Zm-9.33,35.63s16,22.48,18.89,30.37c1.11,3,2.68,8.28,4.2,13.55A91.87,91.87,0,0,1,948,641.58l-17.42-6.86a86.86,86.86,0,0,1-23.66-14l-16.07-13.35a86.29,86.29,0,0,1,13.39-22Zm-34.43,0c5.26-9.8,17.93-19.13,17.93-19.13l7.65,8.61L888,579.64h-2.63S882,574.14,887.3,564.34Zm61.08,132.32s-15.17,3.19-34.3,24.55S886,766.48,884.43,773.81a45.89,45.89,0,0,0-.77,13.88L858.6,802c-5.73,3.17-11.39,7-17.42,9.54-4.52,1.93-10.19,4.29-16.06,6.56-18.89,7.33-26.23,7.88-42.56,10.68-10.37,1.78-71.9,1.75-71.9,1.75s32.52-17.22,38.26-22,39.54-37.62,44-43.68,37.62-51.33,41.45-58,45-80.35,45-80.35,24.87,22,36,25.19,34.12,4.46,34.12,4.46Zm39.09-16.09a60.12,60.12,0,0,0-14.16,4.95l-18.58,9.23v-1.32a106.38,106.38,0,0,1,4.46-30.49l1.59-5.33,0.16-1,14.27-1.5a35.14,35.14,0,0,1,19,3.31,14.09,14.09,0,0,1,7.31,8.47l3.12,10Zm17.16-100.92c-10.84,12.12-19.77,20.41-20.72,30.29s-1.4,33.16-1.4,33.16H958.4s-3.1-30.41-5.1-40.13c-2.63-12.79-11.46-29.48-14.35-33.52a140.74,140.74,0,0,0-10.76-13.07s5-7,15.54-15.3S970.2,527.72,981,528s30,7.95,36.67,11.78,19.13,14,19.13,14S1015.47,567.53,1004.63,579.64Zm136.14-15.3c-1,4.78-12.43,16.58-22,26.14s-30.29,18.81-34.43,22-36.35,16.26-42.09,18.81-34.75,11.8-34.75,11.8-0.32-5.1,0-13.39,7-23.28,13.07-32.84,32.84-28.7,32.84-28.7L1077.33,587s-15.94-23-15.94-24.55,10.84-9.57,10.84-9.57,37-17.22,46.23-18.49,15.62,3.51,22.32,8.29S1141.73,559.56,1140.77,564.34Z" transform="translate(-288)"/></svg>