<svg id="Capa_1" data-name="Capa 1" xmlns="http://www.w3.org/2000/svg" viewBox="0 0 512 292.12"><defs><style>.cls-1{fill:#8f005c;}</style></defs><title>VK_hover</title><path class="cls-1" d="M509.29,373.76a35.08,35.08,0,0,0-1.73-3.33q-13.32-24-50.92-58.92l-0.53-.53-0.27-.26-0.27-.27H455.3q-17.06-16.26-21.59-21.86Q425.44,277.92,430,267q3.2-8.26,24-34.92,10.93-14.13,17.33-22.66,46.12-61.32,40-78.37l-1.59-2.66q-1.6-2.4-8.26-4.4t-17.07-.66l-76.77.53a10,10,0,0,0-5.33.13l-3.47.8-1.34.67-1.06.8a11.85,11.85,0,0,0-2.93,2.8,18.29,18.29,0,0,0-2.66,4.66,435.29,435.29,0,0,1-28.53,60q-9.86,16.53-18.13,28.66t-13.86,17.86a96.7,96.7,0,0,1-10.13,9.2q-4.53,3.47-6.93,2.93c-1.6-.36-3.11-0.71-4.54-1.07a17.73,17.73,0,0,1-6-6.53,29.25,29.25,0,0,1-3.07-10.4q-0.8-6.27-.93-10.8t0.14-12.8q0.28-8.27.27-11.2,0-10.13.4-22t0.67-18.79q0.27-6.93.27-14.66A61.6,61.6,0,0,0,299.5,132a41.5,41.5,0,0,0-2.79-8.53,14.37,14.37,0,0,0-5.46-6.4,30.8,30.8,0,0,0-8.93-3.6q-14.13-3.2-36-3.46-49.58-.53-63.71,6.4a35.91,35.91,0,0,0-10.13,8q-4.8,5.87-1.34,6.4,16,2.4,22.66,11.46l1.6,3.2q1.87,3.46,3.73,12.26a123.72,123.72,0,0,1,2.4,19.46,207.5,207.5,0,0,1,0,33.32q-1.33,13.87-2.53,21.59a43.23,43.23,0,0,1-3.6,12.53,52.86,52.86,0,0,1-3.2,5.86,4.59,4.59,0,0,1-1.33,1.33,20,20,0,0,1-7.2,1.34q-3.74,0-9.06-3.73a64,64,0,0,1-11.06-10.26,137.2,137.2,0,0,1-12.93-18.26q-7.19-11.73-14.93-27.72l-4.26-7.73q-4-7.46-10.93-21.72T108.23,136.1a17.57,17.57,0,0,0-6.4-8.53l-1.33-.8a18.25,18.25,0,0,0-4.26-2.27,28.29,28.29,0,0,0-6.13-1.73l-73,.53q-11.2,0-15.19,5.07L0.8,130a8.62,8.62,0,0,0-.8,4.27,21.22,21.22,0,0,0,1.6,7.2q16,37.59,34.79,72.51T69,270.18Q82.9,291.51,97.3,310.43t19.06,24.26q4.67,5.34,7.33,8l6.67,6.4a158.14,158.14,0,0,0,18.79,15.33A320.58,320.58,0,0,0,176.61,382a149,149,0,0,0,35.06,14.12,121.21,121.21,0,0,0,38.92,4.4h30.66q9.33-.81,14.13-5.87l1.06-1.34a17.67,17.67,0,0,0,2-4.93,27.08,27.08,0,0,0,.93-7.33,87.84,87.84,0,0,1,1.73-20.66q2-9.19,4.54-13.86a34.07,34.07,0,0,1,5.73-7.86,23.17,23.17,0,0,1,4.54-3.87,17.4,17.4,0,0,1,2.13-.93q6.4-2.13,15.07,4.14a88.48,88.48,0,0,1,16.26,15.46q7.6,9.2,18.26,20.66t18.66,17.06l5.33,3.2a64.91,64.91,0,0,0,13.87,5.87q8.52,2.66,14.92,1.33l68.24-1.06q10.12,0,15.73-3.34t6.67-7.33a20.64,20.64,0,0,0,.14-9.07A33.46,33.46,0,0,0,509.29,373.76Z" transform="translate(0 -109.94)"/></svg>