<svg id="Слой_12" data-name="Слой 12" xmlns="http://www.w3.org/2000/svg" viewBox="0 0 993.75 563.58"><defs><style>.cls-1,.cls-2,.cls-4{fill:none;stroke-miterlimit:10;stroke-width:3px;}.cls-1{stroke:#ffccef;}.cls-2{stroke:#e01798;}.cls-3{fill:#e01798;}.cls-4{stroke:#f272cb;}</style></defs><title>illustration</title><line class="cls-1" x1="155.25" y1="54" x2="155.25" y2="75"/><line class="cls-1" x1="138.25" y1="75" x2="245.5" y2="75"/><line class="cls-1" x1="216.75" y1="54" x2="216.75" y2="75"/><polyline class="cls-1" points="123.25 95.5 216.75 95.5 266.25 95.5"/><line class="cls-1" x1="216.75" y1="117.5" x2="216.75" y2="95.5"/><polyline class="cls-1" points="162.75 117.5 200.75 117.5 255 117.5"/><line class="cls-1" x1="202" y1="138" x2="202" y2="117.5"/><polyline class="cls-1" points="881.42 266.44 944.25 265.94 993.75 265.94"/><line class="cls-1" x1="944.25" y1="287.94" x2="944.25" y2="265.94"/><polyline class="cls-1" points="897.75 287.94 928.25 287.94 982.5 287.94"/><line class="cls-1" x1="929.5" y1="308.44" x2="929.5" y2="287.94"/><line class="cls-1" x1="536.34" y1="246.23" x2="536.34" y2="267.23"/><line class="cls-1" x1="519.34" y1="267.23" x2="626.59" y2="267.23"/><line class="cls-1" x1="597.84" y1="246.23" x2="597.84" y2="267.23"/><polyline class="cls-1" points="504.34 287.73 597.84 287.73 647.34 287.73"/><line class="cls-1" x1="597.84" y1="309.73" x2="597.84" y2="287.73"/><polyline class="cls-1" points="543.84 309.73 581.84 309.73 636.09 309.73"/><line class="cls-1" x1="583.09" y1="330.23" x2="583.09" y2="309.73"/><line class="cls-1" x1="907.5" y1="243" x2="907.5" y2="266.23"/><path class="cls-1" d="M143.75,404" transform="translate(-23.49 -26.23)"/><path class="cls-1" d="M86.65,404" transform="translate(-23.49 -26.23)"/><path class="cls-1" d="M165.15,391.82" transform="translate(-23.49 -26.23)"/><path class="cls-1" d="M165.15,383" transform="translate(-23.49 -26.23)"/><polyline class="cls-1" points="137.08 398.24 141.67 398.24 191.17 398.24"/><line class="cls-1" x1="141.67" y1="420.24" x2="141.67" y2="398.24"/><polyline class="cls-1" points="98.08 420.24 125.67 420.24 179.92 420.24"/><line class="cls-1" x1="126.92" y1="440.74" x2="126.92" y2="420.24"/><line class="cls-1" x1="67.42" y1="60.67" x2="67.42" y2="409.23"/><line class="cls-1" x1="67.42" y1="427" x2="67.42" y2="520.75"/><line class="cls-1" x1="474.75" y1="118.96" x2="474.75" y2="541.5"/><line class="cls-1" x1="474.75" x2="474.75" y2="20.25"/><line class="cls-1" x1="881.42" y1="317.73" x2="881.42" y2="349.58"/><line class="cls-1" x1="881.42" y1="290.74" x2="881.42" y2="313.59"/><line class="cls-1" x1="881.42" y1="97.33" x2="881.42" y2="266.44"/><path class="cls-2" d="M377.2,248.35c4.43,2.66,6.93,7.39,6.33,12a11.94,11.94,0,0,1-4.33,7.5" transform="translate(-23.49 -26.23)"/><path class="cls-2" d="M434.74,221.9v32.83a50.15,50.15,0,0,1-50,50h-9.5a50.15,50.15,0,0,1-50-50v-32" transform="translate(-23.49 -26.23)"/><path class="cls-2" d="M379.74,170.73" transform="translate(-23.49 -26.23)"/><path class="cls-2" d="M356,277.23c0,9.94,10.8,18,24.13,18s24.13-8.06,24.13-18H356Z" transform="translate(-23.49 -26.23)"/><path class="cls-2" d="M345.17,233.48a11.18,11.18,0,0,1,21.5-.75" transform="translate(-23.49 -26.23)"/><path class="cls-2" d="M393.3,233.48a11.18,11.18,0,0,1,21.5-.75" transform="translate(-23.49 -26.23)"/><path class="cls-2" d="M325.24,233.48h-0.12c-8.63,0-15.62,5.54-15.62,12.38s7,12.38,15.63,12.38h0.13V233.48Z" transform="translate(-23.49 -26.23)"/><path class="cls-2" d="M434.74,258.1h0.13c8.63,0,15.63-5.54,15.63-12.38s-7-12.37-15.62-12.37h-0.12V258.1Z" transform="translate(-23.49 -26.23)"/><path class="cls-2" d="M380,170.73c0.11,5.06,4.91,25.14,23.25,39.17,11.66,8.91,27.29,11.94,33,11.94" transform="translate(-23.49 -26.23)"/><path class="cls-2" d="M379.74,170.73c0,5-4.91,25.14-23.25,39.17-11.66,8.91-26.72,12-32.74,12" transform="translate(-23.49 -26.23)"/><path class="cls-2" d="M345.27,295.23a55.6,55.6,0,0,0-6.36,17.33c-0.54,3.05-.86,7.9,2.33,25.67,1.17,6.51,2.78,15.77,2.64,21.52" transform="translate(-23.49 -26.23)"/><rect class="cls-3" x="302.29" y="287.45" width="13.47" height="11.88"/><path class="cls-2" d="M343.41,352.14l0.43,7-7.49-9-5.54,9.56-4-9.27-11.29,7.75c12.72-21.39,12.53-36,10-45.33-3-11-8.86-13.66-17.33-29.33a131.22,131.22,0,0,1-14-42.67c-1.38-10.22-4.51-36.27,10-63.33,3.95-7.36,17-31.68,45.33-41.67,11.87-4.18,23.36-2.86,30.17-2.5" transform="translate(-23.49 -26.23)"/><path class="cls-2" d="M414,295.23a55.6,55.6,0,0,1,6.36,17.33c0.54,3.05.86,7.9-2.33,25.67-1.17,6.51-2.78,15.77-2.64,21.52" transform="translate(-23.49 -26.23)"/><rect class="cls-3" x="420.02" y="313.68" width="13.47" height="11.88" transform="translate(830.02 613.01) rotate(180)"/><path class="cls-2" d="M415.85,352.14l-0.43,7,7.49-9,5.54,9.56,4-9.27,11.29,7.75c-12.72-21.39-12.53-36-10-45.33,3-11,8.86-13.66,17.33-29.33a131.22,131.22,0,0,0,14-42.67c1.38-10.22,4.51-36.27-10-63.33-3.95-7.36-17-31.68-45.33-41.67-11.87-4.18-23.36-2.86-30.17-2.5" transform="translate(-23.49 -26.23)"/><path class="cls-2" d="M349.19,297.36c1.15,0.41,8.27,7.29,9,17.12,0.09,1.14.6,9.19-4.75,14-5.91,5.31-12.29,2.65-12.91,5.09s5.89,5.28,13.91,11.91c3.58,3,7.11,8.27,14.25,18.5,4.49,6.43,8.08,11.81,10.5,15.5" transform="translate(-23.49 -26.23)"/><path class="cls-2" d="M377.3,376.55l1.94,3.47c2.42-3.69,6.3-9.61,10.79-16,7.14-10.23,10.67-15.55,14.25-18.5,8-6.62,14.53-9.44,13.91-11.91s-7,.22-12.91-5.09c-5.35-4.81-4.84-12.86-4.75-14,0.77-9.82,8.18-16.16,9.33-16.56" transform="translate(-23.49 -26.23)"/><line class="cls-2" x1="293.12" y1="499" x2="294.75" y2="542.25"/><path class="cls-2" d="M324.86,335.17c-24.55,5-37.35,16.77-42.62,23.73-3.37,4.45-5.58,8.87-12,26-4.12,11-4.4,28-10.24,46.05l37.81,15.23,14.87-25.29,3.22,85.45" transform="translate(-23.49 -26.23)"/><path class="cls-2" d="M434.57,335.56c6.41,1.2,17.1,3.92,27,10.67,4.1,2.79,15.91,11.06,22.67,26.33,2.78,6.29,3.92,12,5,25.67,1,12.1-3.35,28.95-4.09,49.4l-37.16.52-5.07-17.93-7,138.25" transform="translate(-23.49 -26.23)"/><line class="cls-2" x1="238.9" y1="396.23" x2="279.37" y2="411.36"/><line class="cls-2" x1="422.46" y1="413.18" x2="462.11" y2="412.16"/><path class="cls-2" d="M349,528.4c0.36,17.87.89,32.14,1.22,39.33" transform="translate(-23.49 -26.23)"/><path class="cls-2" d="M348.65,492.66c0,4,0,7.89,0,11.74" transform="translate(-23.49 -26.23)"/><path class="cls-2" d="M379.41,379.76c-4.19,7.3-15.37,16.52-21.84,31.14-7.44,16.82-8,31.49-8.33,41-0.24,7.61-.39,15.32-0.48,23" transform="translate(-23.49 -26.23)"/><circle class="cls-3" cx="359.66" cy="371.3" r="4.54"/><circle class="cls-3" cx="349.28" cy="384.95" r="4.54"/><circle class="cls-3" cx="342.04" cy="400.19" r="4.54"/><circle class="cls-3" cx="339.45" cy="416.51" r="4.54"/><rect class="cls-2" x="371.27" y="383.5" width="34" height="16.69"/><path class="cls-2" d="M485.15,447.63l-1,41.7a121.11,121.11,0,0,1-4.47,29.73l-13.87,49.42" transform="translate(-23.49 -26.23)"/><path class="cls-2" d="M448,448.16l4.68,46.22a121.11,121.11,0,0,1,.28,21.23l-4,52.87" transform="translate(-23.49 -26.23)"/><path class="cls-2" d="M297.81,446.18l-13.43,43.68a9.64,9.64,0,0,0,2.57,9.82h0a20.26,20.26,0,0,0,13,5.56l45.24,3-0.61,1.46a23.07,23.07,0,0,0-1.14,3.48l0,0.11a16.89,16.89,0,0,0,1.83,12.47l0.56,1-55.64-1.48a95.05,95.05,0,0,1-23.56-3h0a14.55,14.55,0,0,1-9.56-7.9h0A44.17,44.17,0,0,1,253.71,487l10.72-54.26" transform="translate(-23.49 -26.23)"/><path class="cls-2" d="M345.24,508.23a32.25,32.25,0,0,1,7.5-6,40.56,40.56,0,0,1,10.58-4.81c3.94-1.27,5.68-1.08,6.59-.19s1.62,2,.46,3.13-1.77,1.61-5.44,2.5c-2.37.58-6.07,2.6-6,3s7.49-.09,13.46-0.35c2.79-.12,5.28-0.78,7-0.19a2.79,2.79,0,0,1,1.81,3.67c-0.35,1-3.21,1.21-7.65,1.54l-6.33.5c-4.72.35-5.49,0.32-5.5,0.5,0,0.41,3.69-.44,7.38-0.44a3.64,3.64,0,0,1,2.42,1.74c0.54,1.08,1.06,2.55.38,3.71-0.54.93-1.81,1.13-4.33,1.5-2.82.41-4.29,0.1-4.33,0.33s3.41-.12,7-0.82A3,3,0,0,1,372.8,519a2.82,2.82,0,0,1-.06,3.13c-0.64,1.12-1,3-8.25,3.16-5.61.16,5.44-.13,6,1.07,0.63,1.35.33,2.66-2,4.15a12,12,0,0,1-3.15.6,37.26,37.26,0,0,1-9.25-.5,27.36,27.36,0,0,1-8.08-2.75,31,31,0,0,1-2.92-1.67" transform="translate(-23.49 -26.23)"/><line class="cls-2" x1="342.65" y1="479.61" x2="339.5" y2="477.23"/><path class="cls-2" d="M384.13,518.76a27.41,27.41,0,0,1-5.11-3.21L373,511" transform="translate(-23.49 -26.23)"/><path class="cls-2" d="M357.75,499.51l-14.06-10.6c-2.71-2.33-2.06-7.6.27-10.31h0c2.33-2.71,8.08-5.15,10.79-2.82l31,31.93a16.09,16.09,0,0,1,2.06,2.17,17,17,0,0,1,1.2,1.4" transform="translate(-23.49 -26.23)"/><path class="cls-2" d="M381.16,517.07l19.91,11.3a1,1,0,0,0,1.26-1.53L387.1,509" transform="translate(-23.49 -26.23)"/><line class="cls-2" x1="364.6" y1="483.96" x2="358.86" y2="491.52"/><line class="cls-2" x1="350.13" y1="470.28" x2="347.39" y2="473.39"/><path class="cls-2" d="M805.65,281.94c-4.43,2.66-6.93,7.39-6.33,12a11.94,11.94,0,0,0,4.33,7.5" transform="translate(-23.49 -26.23)"/><path class="cls-2" d="M748.12,255.48v28.08c0,30.11,24.69,55.32,54.81,55.32h0c30.11,0,54.69-25.21,54.69-55.32V256.36" transform="translate(-23.49 -26.23)"/><path class="cls-2" d="M803.12,204.32" transform="translate(-23.49 -26.23)"/><path class="cls-2" d="M826.87,310.82c0,9.94-10.8,18-24.12,18s-24.12-8.06-24.12-18h48.25Z" transform="translate(-23.49 -26.23)"/><path class="cls-2" d="M789.55,267.07c-1.2-4.85-5-5.72-10-5.87s-10,.39-11.48,5.13" transform="translate(-23.49 -26.23)"/><path class="cls-2" d="M857.62,267.07h0.13c8.63,0,15.63,5.54,15.63,12.38s-7,12.38-15.62,12.38h-0.12V267.07Z" transform="translate(-23.49 -26.23)"/><path class="cls-2" d="M748.12,291.69H748c-8.63,0-15.62-5.54-15.62-12.37s7-12.37,15.63-12.37h0.13v24.74Z" transform="translate(-23.49 -26.23)"/><line class="cls-2" x1="741.05" y1="224.7" x2="763.22" y2="221.9"/><path class="cls-2" d="M814.36,266.94c1.2-4.85,5-5.72,10-5.87s10,0.39,11.48,5.13" transform="translate(-23.49 -26.23)"/><line class="cls-2" x1="815.89" y1="224.57" x2="793.72" y2="221.78"/><path class="cls-2" d="M760.41,318.24c-0.9,3.62-5,11.94-9.67,16.82-15.46,16.2-47.37,9.77-47.5,7.83-0.05-.77,5,0,10.5-3.67,12.43-8.4,12.56-30.4,11-30.83-0.61-.17-1,3.13-4.33,6.83a23.07,23.07,0,0,1-16.83,7.33c-13.28-.21-20.57-13.68-22-16.33-5-9.31-5.12-20.23-3-21,1.16-.42,2.23,2.45,6.67,5,0.39,0.23,5.83,3.28,10.33,2.67,6.83-.93,10.76-10.19,12.33-14,7.62-18.53.83-30.06,2.67-57,0.83-12.18,1.42-20.82,5.67-30,7.65-16.55,25.33-33.11,43.67-34,3.34-.16,17.84-2.52,29-1.21,7.47,0.88,12.29,2.71,13.65,2.71,3.68,0,7.65-3.65,12-4,7.44-.67,15.92-1.1,25.72,1.54,12.07,3.25,19.7,5.31,28.33,11.67,2.36,1.74,18.38,13.89,23.67,35.33,1.64,6.65.07,5.36,1.33,30a270.19,270.19,0,0,0,3.33,33.33c4.23,24.71,9.35,27,11,28.33,3.8,3,7.41,3.2,13,3.47,13.83,0.67,18.58-4.06,10.58,5.44-5.37,6.38-8.62,10-16.92,11.58-15.81,3.08-28.17-2.5-30.67-4.5-0.91-.73-0.24,2.7,1.33,6,7.87,16.5,16.3,19.27,22.67,24.5,3.36,2.76-19,3.2-26.83,1.83-11.86-2.07-19.25-6.3-26.5-13-3.57-3.3-8.51-8.45-10.25-10.5" transform="translate(-23.49 -26.23)"/><path class="cls-2" d="M857.62,258v-2.33a5.59,5.59,0,0,0-2.12-4c-16.66-13.5-28-17.83-37.36-26.61-14.18-13.28-25.31-24.73-27-23.33-1.3,1.08,3.27,9.54,7.33,15.33,5.35,7.61,9.81,10.59,9,12-1.12,2-11-1.46-17.33-4.33-9.46-4.29-21.92-9.94-26.67-21.33-0.77-1.84-1.17-3.45-2.33-3.67-3.77-.7-10.48,14.25-13,26.33-1.46,7,0,15.31,0,31.43" transform="translate(-23.49 -26.23)"/><path class="cls-2" d="M772.25,329.13c1.15,0.41,8.27,7.29,9,17.12,0.09,1.14.6,9.19-4.75,14-5.91,5.31-27.81,2.36-28.43,4.81s21.41,5.57,29.43,12.19c3.58,3,7.11,8.27,14.25,18.5,4.49,6.43,8.08,11.81,10.5,15.5" transform="translate(-23.49 -26.23)"/><path class="cls-2" d="M800.36,408.32l1.94,3.47c2.42-3.69,6.3-9.61,10.79-16,7.14-10.23,10.67-15.55,14.25-18.5,8-6.62,30.91-11.22,30.29-13.69s-23.39,2-29.29-3.31c-5.35-4.81-4.84-12.86-4.75-14,0.77-9.82,8.38-16.16,9.53-16.56" transform="translate(-23.49 -26.23)"/><path class="cls-2" d="M927.57,568.48l-10.91-81.41a123.61,123.61,0,0,1-1.09-16.41v-74.1a26.22,26.22,0,0,0-8.76-19.68,56.39,56.39,0,0,0-9.24-6.64c-16-9.22-33.86-7.51-39.46-6.73" transform="translate(-23.49 -26.23)"/><path class="cls-2" d="M896.24,568.48l-7.76-58.73q-0.9-6.85-2.41-13.6L876.24,452,865.49,568.48" transform="translate(-23.49 -26.23)"/><path class="cls-2" d="M748.12,365.06c-2.13-.65-20.07-4.1-36.88,7.84-11.45,8.13-15.61,19.59-17.13,27-0.49,2.38-6.2,48.84-21.54,54-24.85,8.44-63.84-23.95-63.84-23.95L594,449.23s60.58,46.67,80.25,44.33c38.05-4.51,50.5-49.33,50.5-49.33l15.51,124.25" transform="translate(-23.49 -26.23)"/><path class="cls-2" d="M559.58,429.57A112.07,112.07,0,0,1,545.26,438l-6.52,3.22,10.34,5.53a36.68,36.68,0,0,1,7.62,5.42l3.65,3.38a61.79,61.79,0,0,1,5.41,5.68l4.23,5,5.4-9.44a53.41,53.41,0,0,1,8.06-10.71l23.89-24.6a50.25,50.25,0,0,1,12.22-9.23l6.18-3.33-27.87-19.25L595,394.39c-2.17,3.59-5.94,8-8.6,11.21" transform="translate(-23.49 -26.23)"/><path class="cls-2" d="M584.75,419a7.38,7.38,0,1,1-7.37,7.38" transform="translate(-23.49 -26.23)"/><line class="cls-2" x1="537.5" y1="414.25" x2="545.5" y2="421.4"/><line class="cls-2" x1="549.88" y1="408.71" x2="553.38" y2="411.87"/><line class="cls-2" x1="584.52" y1="385.63" x2="576.52" y2="378.47"/><line class="cls-2" x1="572.14" y1="391.16" x2="568.64" y2="388"/><path class="cls-2" d="M577.37,446" transform="translate(-23.49 -26.23)"/><path class="cls-2" d="M608.38,422.09a3.16,3.16,0,0,1,1.09,2.89h0a19.5,19.5,0,0,1-3.8,9l-8.54,11.17a12.06,12.06,0,0,1-8.3,4.67h0a14.59,14.59,0,0,1-7.59-1.23" transform="translate(-23.49 -26.23)"/><path class="cls-2" d="M587.74,404.48c1,2.15,2.44,6.34.75,10.25a11.27,11.27,0,0,1-2.75,3.63c-9.63,9.79-11.63,11.77-15.5,13.38a9.19,9.19,0,0,1-5.62.88,8.85,8.85,0,0,1-4.9-3.13,8.45,8.45,0,0,1-1.28-2.34,6.91,6.91,0,0,1-.45-2.65,10,10,0,0,1,.54-2.4,17.88,17.88,0,0,1,1-2.94,12.4,12.4,0,0,1,1.72-2.6c4.92-5.94,5.6-8.45,9.61-11.35,2.35-1.7,6-4.34,10.58-3.64a11.51,11.51,0,0,1,5.81,2.82" transform="translate(-23.49 -26.23)"/><polyline class="cls-4" points="54.42 542.25 54.42 521 146.42 521 146.42 542.25"/><line class="cls-4" x1="669.83" y1="562.08" x2="104.36" y2="562.08"/><path class="cls-4" d="M118.92,508.67h11.33a6.5,6.5,0,0,1,6.5,6.5V521a0,0,0,0,1,0,0H112.42a0,0,0,0,1,0,0v-5.83A6.5,6.5,0,0,1,118.92,508.67Z"/><polyline class="cls-4" points="133.42 371 124.58 360.67 8.08 426 68.75 521"/><path class="cls-4" d="M93.49,397.48H223.74a15.12,15.12,0,0,1,15.12,15.12v10.88a0,0,0,0,1,0,0H78.37a0,0,0,0,1,0,0V412.6a15.13,15.13,0,0,1,15.13-15.13Z" transform="translate(-205.49 105.63) rotate(-29.59)"/><rect class="cls-4" x="82.32" y="412.43" width="160.5" height="10" transform="translate(-208.41 108.49) rotate(-29.59)"/><line class="cls-4" y1="542.25" x2="23.5" y2="542.25"/><line class="cls-2" x1="960.75" y1="542.25" x2="44.75" y2="542.25"/><path class="cls-2" d="M710.56,120.26l8.55,31.92-32.48-8.7s-29.16,11.37-48.84,11.37a99.94,99.94,0,0,1-42.16-9h0a99.87,99.87,0,0,1-42.16,9c-19.68,0-48.83-11.37-48.83-11.37l-32.49,8.7,8.55-31.92a50.75,50.75,0,0,1-8.55-27.91c0-34.52,36.41-62.5,81.32-62.5a99.87,99.87,0,0,1,42.16,9h0a99.94,99.94,0,0,1,42.16-9c44.91,0,81.32,28,81.32,62.5A50.75,50.75,0,0,1,710.56,120.26Z" transform="translate(-23.49 -26.23)"/><path class="cls-2" d="M549.38,79.86a3.63,3.63,0,0,1,1.61-3c4-2.69,14.53-9.6,19.85-11.86,6.66-2.84,22.07-9,28.36-10.23a42.5,42.5,0,0,1,14.47-.86c5.1,0.49,7.4.66,11.18,2a55.68,55.68,0,0,1,8.06,3.29c1.81,1,18.91,13.15,18.91,13.15a65.33,65.33,0,0,0-14.63-4.44c-6.91-1-13.81-2.53-20.88-2.09s-15.45.94-20.55,3.24-15,7.15-17.92,8.92c-2.25,1.34-12.72,7.25-17.65,10a6.25,6.25,0,0,1-7-.48,5.22,5.22,0,0,1-.85-0.86c-1.64-2.14-3-4.81-3-6.74h0Z" transform="translate(-23.49 -26.23)"/><path class="cls-2" d="M558.26,118.17a63.75,63.75,0,0,1,5.43-10.36c3-4.27,3.78-5.92,8.71-8.39a40.32,40.32,0,0,1,12.82-4.27c3.78-.49,8.39-1.36,13.32-0.76s11.34,2.24,13.48,3.39,11.34,5.75,12.66,6.91,3.95,3.62,6.08,3,4.77-1,6.41-2.47S641,98.94,641,98.94s-1.32,7.4-3.29,10-4.11,6.91-6.41,7.23-3.29,1.64-7.07-.16-6.08-4.77-11.67-7.07-11.67-4.44-15.62-4.77a51.4,51.4,0,0,0-15.45,1c-5.26,1.32-9.37,2.47-12.17,4.77-1.5,1.23-3.72,2.8-5.46,4a68.36,68.36,0,0,0-5.49,4.17Z" transform="translate(-23.49 -26.23)"/><path class="cls-2" d="M623.11,115.46s-2.7,4.15-5,5.75-4.93,3.95-8.39,5.3a82.51,82.51,0,0,1-12.45,3.58c-2.47.37-10.23,1.48-13.81,0.74a64.28,64.28,0,0,1-8.88-2.34c-2.34-.86-8-2.84-10.48-4.56a38,38,0,0,1-5.73-5.81" transform="translate(-23.49 -26.23)"/><path class="cls-2" d="M591.8,104s5.14-.19,7.81-2.9,6-5.92,6.25-8.14S606.6,88,606.6,88" transform="translate(-23.49 -26.23)"/><path class="cls-2" d="M604.38,106.18s5.14-.19,7.81-2.9,6-5.92,6.25-8.14,0.74-4.93.74-4.93" transform="translate(-23.49 -26.23)"/><path class="cls-2" d="M615.33,110.37s5.14-.19,7.81-2.9,6-5.92,6.25-8.14,0.74-4.93.74-4.93" transform="translate(-23.49 -26.23)"/><path class="cls-2" d="M586,131.08a13.77,13.77,0,0,1-9.69-12.9,13.28,13.28,0,1,1,26.55,0,13.88,13.88,0,0,1-7.81,12.22" transform="translate(-23.49 -26.23)"/><circle class="cls-2" cx="566.15" cy="91.94" r="7.34"/></svg>