<svg id="Capa_1" data-name="Capa 1" xmlns="http://www.w3.org/2000/svg" viewBox="0 0 27.02 23.94"><defs><style>.cls-1{fill:#aeb4be;}</style></defs><title>house_hover</title><path class="cls-1" d="M3.67,24.88a0.56,0.56,0,0,0,.57.6h6.81V19.89a0.79,0.79,0,0,1,.8-0.92h2.83a0.88,0.88,0,0,1,1,.92v5.56h6.67A0.7,0.7,0,0,0,23,24.7V14.41l-9.4-8.36-10,8.36V24.88Z" transform="translate(0 -1.54)"/><path class="cls-1" d="M0,13.64s0.85,1.56,2.69,0l11-9.34,10.35,9.28c2.14,1.54,2.94,0,2.94,0l-13.29-12Z" transform="translate(0 -1.54)"/><polygon class="cls-1" points="23.83 2.73 21.17 2.73 21.18 5.96 23.83 8.21 23.83 2.73"/></svg>