<svg id="Layer_1" data-name="Layer 1" xmlns="http://www.w3.org/2000/svg" viewBox="0 0 482.5 435.3"><defs><style>.cls-1{fill:#191b2f;}.cls-2{fill:#f3c172;}</style></defs><title>logo_dark</title><path class="cls-1" d="M268.9,237H249.7V173.3H65.9A65.89,65.89,0,0,1,0,107.42V68.5H19.2v38.9a46.77,46.77,0,0,0,46.7,46.8h203V237h0Z" transform="translate(0)"/><path class="cls-2" d="M467,15.5a20.16,20.16,0,0,0-14.2-5.9H65.9A20.14,20.14,0,0,0,45.8,29.7V68.6H472.9V29.7A20,20,0,0,0,467,15.5Z" transform="translate(0)"/><path class="cls-1" d="M452.7,137.2H65.9a29.7,29.7,0,0,1-29.7-29.7V29.7A29.7,29.7,0,0,1,65.9,0H452.8a29.7,29.7,0,0,1,29.7,29.7h0v77.8a29.7,29.7,0,0,1-29.7,29.7h-0.1ZM65.9,19.1a10.6,10.6,0,0,0-7.5,3.1,10.37,10.37,0,0,0-3.1,7.4v77.8a10.2,10.2,0,0,0,3.1,7.4,10.37,10.37,0,0,0,7.4,3.1H452.7a10.6,10.6,0,0,0,7.5-3.1,10.37,10.37,0,0,0,3.1-7.4V29.6a10.2,10.2,0,0,0-3.1-7.4,10.37,10.37,0,0,0-7.4-3.1H65.9Z" transform="translate(0)"/><path class="cls-1" d="M259.3,435.3a49.85,49.85,0,0,1-49.8-49.8v-158h99.6v158A49.85,49.85,0,0,1,259.3,435.3ZM228.7,246.6V385.5a30.7,30.7,0,0,0,61.4,0V246.6H228.7Z" transform="translate(0)"/><path class="cls-1" d="M274.6,385.5a15.3,15.3,0,1,1-15.3-15.3h0A15.3,15.3,0,0,1,274.6,385.5Z" transform="translate(0)"/></svg>