<svg id="Capa_1" data-name="Capa 1" xmlns="http://www.w3.org/2000/svg" viewBox="0 0 484.74 392.01"><defs><style>.cls-1{fill:#fff;}</style></defs><title>office_active</title><path class="cls-1" d="M131,438.37h85.62V350.82H268.1v87.56h85.62v-392H131v392ZM258,92.56h51.47V144H258V92.56Zm0,82.72h51.47v51.47H258V175.28ZM258,258h51.47v51.47H258V258ZM175.28,92.56h51.47V144H175.28V92.56Zm0,82.72h51.47v51.47H175.28V175.28Zm0,82.71h51.47v51.47H175.28V258Z" transform="translate(0 -46.37)"/><path class="cls-1" d="M373.72,81.48V358.66h33.07v79.71h78V81.48h-111ZM444.44,321H397.58V274.15h46.86V321h0Zm0-75.31H397.58V198.85h46.86V245.7h0Zm0-75.31H397.58V123.54h46.86V170.4h0Z" transform="translate(0 -46.37)"/><path class="cls-1" d="M0,438.37H78V358.66H111V81.48H0V438.37ZM40.3,123.54H87.16V170.4H40.3V123.54Zm0,75.31H87.16V245.7H40.3V198.85Zm0,75.3H87.16V321H40.3V274.15Z" transform="translate(0 -46.37)"/></svg>